# xmcd
#
# Track frame offsets: 
#        150
#        20773
#        44746
#        67561
#        90184
#        110936
#        138969
#        160791
#        179335
#        205847
#        235825
#        254097
#        278531
#
# Disc length: 4018 seconds
#
# Revision: 3
# Processed by: cddbd v1.5.1PL0 Copyright (c) Steve Scherf et al.
# Submitted via: ExactAudioCopy v0.95a5
#
DISCID=b10fb00d
DTITLE=Chris Rea - The Blue Jukebox
DYEAR=2004
DGENRE=Blues
TTITLE0=The Beat Goes On
TTITLE1=Long Is The Time, Hard Is The Road
TTITLE2=Let's Do It
TTITLE3=Let It Roll
TTITLE4=Steel River Blues
TTITLE5=Somebody Say Amen
TTITLE6=Blue Street
TTITLE7=Monday Morning
TTITLE8=Restless Soul
TTITLE9=What Kind Of Love Is This
TTITLE10=Paint My Jukebox Blue
TTITLE11=Baby Don't Cry
TTITLE12=Speed
EXTD=YEAR: 2004
EXTT0=
EXTT1=
EXTT2=
EXTT3=
EXTT4=
EXTT5=
EXTT6=
EXTT7=
EXTT8=
EXTT9=
EXTT10=
EXTT11=
EXTT12=
PLAYORDER=
